<mxfile host="app.diagrams.net" agent="Mozilla/5.0 (Macintosh; Intel Mac OS X 10_15_7) AppleWebKit/605.1.15 (KHTML, like Gecko) Version/17.5 Safari/605.1.15" version="24.7.7">
  <diagram id="C5RBs43oDa-KdzZeNtuy" name="Page-1">
    <mxGraphModel dx="1118" dy="1014" grid="1" gridSize="10" guides="1" tooltips="1" connect="1" arrows="1" fold="1" page="1" pageScale="1" pageWidth="827" pageHeight="1169" math="0" shadow="0">
      <root>
        <mxCell id="WIyWlLk6GJQsqaUBKTNV-0" />
        <mxCell id="WIyWlLk6GJQsqaUBKTNV-1" parent="WIyWlLk6GJQsqaUBKTNV-0" />
        <mxCell id="FrUVmgDdikI2n62S4qW0-10" style="edgeStyle=orthogonalEdgeStyle;rounded=0;orthogonalLoop=1;jettySize=auto;html=1;" edge="1" parent="WIyWlLk6GJQsqaUBKTNV-1" source="FrUVmgDdikI2n62S4qW0-0" target="FrUVmgDdikI2n62S4qW0-1">
          <mxGeometry relative="1" as="geometry" />
        </mxCell>
        <mxCell id="FrUVmgDdikI2n62S4qW0-0" value="start" style="ellipse;whiteSpace=wrap;html=1;" vertex="1" parent="WIyWlLk6GJQsqaUBKTNV-1">
          <mxGeometry x="60" y="40" width="120" height="80" as="geometry" />
        </mxCell>
        <mxCell id="FrUVmgDdikI2n62S4qW0-9" style="edgeStyle=orthogonalEdgeStyle;rounded=0;orthogonalLoop=1;jettySize=auto;html=1;" edge="1" parent="WIyWlLk6GJQsqaUBKTNV-1" source="FrUVmgDdikI2n62S4qW0-1" target="FrUVmgDdikI2n62S4qW0-2">
          <mxGeometry relative="1" as="geometry" />
        </mxCell>
        <mxCell id="FrUVmgDdikI2n62S4qW0-1" value="" style="rounded=0;whiteSpace=wrap;html=1;" vertex="1" parent="WIyWlLk6GJQsqaUBKTNV-1">
          <mxGeometry x="40" y="160" width="280" height="60" as="geometry" />
        </mxCell>
        <mxCell id="FrUVmgDdikI2n62S4qW0-8" style="edgeStyle=orthogonalEdgeStyle;rounded=0;orthogonalLoop=1;jettySize=auto;html=1;" edge="1" parent="WIyWlLk6GJQsqaUBKTNV-1" source="FrUVmgDdikI2n62S4qW0-2" target="FrUVmgDdikI2n62S4qW0-3">
          <mxGeometry relative="1" as="geometry" />
        </mxCell>
        <mxCell id="FrUVmgDdikI2n62S4qW0-2" value="" style="rounded=0;whiteSpace=wrap;html=1;" vertex="1" parent="WIyWlLk6GJQsqaUBKTNV-1">
          <mxGeometry x="30" y="260" width="280" height="60" as="geometry" />
        </mxCell>
        <mxCell id="FrUVmgDdikI2n62S4qW0-7" style="edgeStyle=orthogonalEdgeStyle;rounded=0;orthogonalLoop=1;jettySize=auto;html=1;" edge="1" parent="WIyWlLk6GJQsqaUBKTNV-1" source="FrUVmgDdikI2n62S4qW0-3" target="FrUVmgDdikI2n62S4qW0-4">
          <mxGeometry relative="1" as="geometry" />
        </mxCell>
        <mxCell id="FrUVmgDdikI2n62S4qW0-3" value="output &quot;Please enter is it raining: Example - &#39;Yes&#39; or &#39;No&#39;" style="shape=parallelogram;perimeter=parallelogramPerimeter;whiteSpace=wrap;html=1;fixedSize=1;" vertex="1" parent="WIyWlLk6GJQsqaUBKTNV-1">
          <mxGeometry x="20" y="360" width="360" height="60" as="geometry" />
        </mxCell>
        <mxCell id="FrUVmgDdikI2n62S4qW0-6" style="edgeStyle=orthogonalEdgeStyle;rounded=0;orthogonalLoop=1;jettySize=auto;html=1;" edge="1" parent="WIyWlLk6GJQsqaUBKTNV-1" source="FrUVmgDdikI2n62S4qW0-4" target="FrUVmgDdikI2n62S4qW0-5">
          <mxGeometry relative="1" as="geometry" />
        </mxCell>
        <mxCell id="FrUVmgDdikI2n62S4qW0-4" value="input isRaining" style="shape=parallelogram;perimeter=parallelogramPerimeter;whiteSpace=wrap;html=1;fixedSize=1;" vertex="1" parent="WIyWlLk6GJQsqaUBKTNV-1">
          <mxGeometry x="120" y="450" width="140" height="60" as="geometry" />
        </mxCell>
        <mxCell id="FrUVmgDdikI2n62S4qW0-5" value="if isRaining == &quot;Yes&quot; then" style="rhombus;whiteSpace=wrap;html=1;" vertex="1" parent="WIyWlLk6GJQsqaUBKTNV-1">
          <mxGeometry x="90" y="540" width="190" height="130" as="geometry" />
        </mxCell>
      </root>
    </mxGraphModel>
  </diagram>
</mxfile>
